<svg xmlns="http://www.w3.org/2000/svg" width="169" height="36" viewBox="0 0 169 36"><g><g opacity=".7"><path fill="#c4c4c4" d="M0 0h17.126l-.001 17.126H0z"/></g><g opacity=".7"><path fill="#c4c4c4" d="M18.874 0H36c0 5.709.001 11.417-.001 17.126H18.875c-.002-5.709 0-11.417 0-17.126z"/></g><g opacity=".7"><path fill="#c4c4c4" d="M154.435 6.525c1.579-1.027 3.618-1.123 5.398-.633.015 1.057.002 2.115.007 3.174-.845-.373-1.84-.615-2.73-.25-.705.28-1.125 1.004-1.235 1.728-.133.918-.046 1.85-.07 2.773 1.807.004 3.613 0 5.42.002.013-1.173-.015-2.346.015-3.519 1.228-.35 2.443-.741 3.665-1.11.01 1.545-.015 3.091.013 4.637 1.22-.017 2.443-.004 3.665-.008v3.008c-1.226-.05-2.453-.014-3.68-.018.006 1.73.002 3.458.003 5.188.02.958-.052 1.92.06 2.875.068.563.273 1.186.8 1.477.884.495 2.005.279 2.817-.264v3.037c-1.059.46-2.241.6-3.386.518-1.086-.08-2.212-.475-2.92-1.339-.82-.976-1.03-2.298-1.046-3.534-.01-2.654 0-5.307-.005-7.962-1.807-.001-3.614-.002-5.42.001-.002 4.165-.001 8.33-.001 12.494H152.1c0-4.164-.005-8.326.002-12.49-.859-.016-1.719.004-2.578-.013.004-.989.008-1.978-.002-2.968.855-.02 1.71-.011 2.568-.005.062-1.314-.138-2.667.255-3.948.332-1.156 1.07-2.199 2.089-2.85z"/></g><g opacity=".7"><path fill="#c4c4c4" d="M75.134 6.741c.747-.113 1.555.142 2.05.726.58.64.687 1.659.257 2.406-.475.844-1.539 1.236-2.465 1.033-.962-.173-1.763-1.067-1.72-2.063-.028-1.05.85-1.984 1.878-2.102z"/></g><g opacity=".7"><path fill="#c4c4c4" d="M46.749 7.2h5.386c1.677 4.257 3.366 8.51 5.044 12.768.43 1.064.83 2.141 1.28 3.197 2.157-5.32 4.345-10.626 6.485-15.953 1.727-.027 3.455-.006 5.183-.01-.004 7.199-.002 14.398-.001 21.597-1.247-.003-2.492.01-3.738-.007.014-5.313 0-10.625.006-15.939a9.291 9.291 0 0 0-.022-.716 2.853 2.853 0 0 0-.195.346c-2.14 5.438-4.322 10.86-6.45 16.304-.886.032-1.774.002-2.662.016-2.208-5.438-4.389-10.888-6.586-16.33a4.125 4.125 0 0 0-.186-.33c-.045 2.328-.007 4.658-.02 6.985.002 3.224-.002 6.447.002 9.67-1.176.004-2.352 0-3.526.002-.001-7.2-.002-14.4 0-21.6z"/></g><g opacity=".7"><path fill="#c4c4c4" d="M85.327 13.305c1.788-.51 3.715-.489 5.502.016a4.44 4.44 0 0 1 1.056.44c-.02 1.18 0 2.36-.011 3.542-1.194-.913-2.71-1.49-4.227-1.3-1.206.11-2.356.735-3.077 1.709-.927 1.208-1.14 2.811-.981 4.288.12 1.156.597 2.311 1.496 3.078.934.83 2.244 1.124 3.466 1.031 1.207-.139 2.347-.65 3.323-1.364.01 1.118-.005 2.236.008 3.355-1.514.9-3.33 1.133-5.062 1.048-1.774-.094-3.542-.766-4.825-2.012-1.395-1.345-2.152-3.262-2.242-5.182-.09-1.997.316-4.08 1.465-5.747.963-1.422 2.469-2.43 4.11-2.902z"/></g><g opacity=".7"><path fill="#c4c4c4" d="M110.421 13.038c1.778-.226 3.653-.125 5.302.626 1.432.645 2.592 1.84 3.235 3.27.686 1.522.853 3.231.737 4.882-.114 1.612-.62 3.227-1.628 4.507-1.032 1.36-2.587 2.282-4.253 2.624a10.637 10.637 0 0 1-4.336-.004c-1.703-.364-3.28-1.353-4.279-2.79-1.172-1.667-1.506-3.786-1.357-5.782.101-1.694.628-3.402 1.71-4.73 1.185-1.489 3.002-2.367 4.87-2.603z"/></g><g opacity=".7"><path fill="#c4c4c4" d="M125.786 13.069c1.713-.301 3.505-.08 5.126.534.002 1.135 0 2.27.001 3.404a6.527 6.527 0 0 0-3.89-1.149c-.692.027-1.453.32-1.769.979-.25.65-.077 1.504.537 1.894 1.05.703 2.303 1.001 3.391 1.63.857.482 1.688 1.111 2.122 2.019.816 1.699.47 3.944-.963 5.211-1.37 1.28-3.341 1.634-5.155 1.566-1.287-.083-2.581-.337-3.765-.864.005-1.194-.007-2.387.006-3.58.996.723 2.145 1.24 3.36 1.45.847.138 1.767.144 2.556-.235.755-.375.891-1.448.443-2.104-.42-.506-1.036-.785-1.617-1.059-1.092-.49-2.238-.9-3.197-1.636-.674-.526-1.184-1.266-1.384-2.101-.296-1.232-.203-2.62.513-3.695.817-1.254 2.238-2.006 3.685-2.264z"/></g><g opacity=".7"><path fill="#c4c4c4" d="M139.942 13.033c1.849-.23 3.811-.105 5.498.747 1.47.735 2.612 2.064 3.181 3.6.446 1.176.602 2.446.576 3.697.003 1.87-.502 3.79-1.675 5.273-1.099 1.436-2.78 2.369-4.554 2.662-1.735.28-3.568.208-5.217-.441a6.864 6.864 0 0 1-3.762-3.65c-.734-1.685-.81-3.58-.582-5.378.24-1.8 1.054-3.558 2.443-4.754 1.137-.999 2.602-1.565 4.092-1.756z"/></g><g opacity=".7"><path fill="#c4c4c4" d="M100.167 13.557c1.023-.614 2.322-.666 3.438-.29-.005 1.235 0 2.47-.003 3.705a3.937 3.937 0 0 0-2.504-.588c-1.05.12-1.884.927-2.316 1.853-.47.98-.557 2.089-.528 3.16V28.8h-3.651c-.003-5.157.004-10.316-.003-15.473 1.219-.015 2.438-.01 3.656-.003-.005.886 0 1.771-.003 2.658.396-.964.986-1.9 1.914-2.425z"/></g><g opacity=".7"><path fill="#c4c4c4" d="M73.592 13.324c1.228-.005 2.457-.017 3.686.006-.015 5.157-.001 10.314-.007 15.47h-3.677c-.003-5.158.001-10.317-.002-15.476z"/></g><g opacity=".7"><path fill="#c4c4c4" d="M0 18.873c5.709.002 11.417 0 17.126.002V36H0z"/></g><g opacity=".7"><path fill="#c4c4c4" d="M18.875 18.875c5.708-.002 11.416 0 17.125 0V36H18.874l.001-17.125z"/></g></g></svg>