<svg xmlns="http://www.w3.org/2000/svg" width="70" height="28" viewBox="0 0 70 28"><g><g><path fill="#ef494d" d="M3.908 12.911c.237-2.963 2.755-4.569 5.257-4.489 2.959.095 4.747 1.443 5.035 4.49zm9.892 4.697c-.767 2.024-2.686 2.713-4.477 2.713-3.3 0-5.292-1.839-5.51-5.073l14.02-.011c.277-5.796-2.782-9.133-8.705-9.069C3.908 6.225.276 9.036.3 14.516c.011 2.555.772 4.6 2.4 6.016 1.626 1.413 3.828 2.059 6.606 2.059 2.204 0 4.02-.441 5.44-1.328 1.418-.886 2.34-2.09 2.577-3.655H13.8z"/></g><g><path fill="#0067ab" d="M26.726 8.46c1.498 0 2.78.503 3.837 1.501 1.058.999 1.715 2.218 1.715 4.319 0 2.054-.616 3.428-1.718 4.464-1.105 1.038-2.475 1.53-3.992 1.495-3.593-.083-5.176-2.807-5.282-6.063-.101-3.117 2.292-5.715 5.44-5.715zm-5.567 13.553l.125-2.142c1.381 1.5 3.18 2.498 5.573 2.691 2.417.196 4.536-.393 6.277-1.881 1.743-1.49 2.79-3.535 2.769-6.338-.017-2.19-.8-4.378-2.34-5.908-1.84-1.828-3.963-2.261-6.431-2.261-2.267 0-4.509 1.045-5.786 2.625V0h-3.494v18.931l-.104 3.082h3.411z"/></g><g><path fill="#febf2c" d="M48.616 14.74c0 1.198-.003 2.09-.583 3.178-1.353 2.533-5.71 3.347-7.894 1.6-1.486-1.188-1.273-3.59.671-4.2 2.313-.727 5.46-.607 7.806-.577zm.269 5.114c.044.73-.03 1.284.135 2.198h3.202c-.216-1.117-.113-5.69-.113-6.432V12.07c0-4.452-3.28-5.831-7.5-5.936a12.75 12.75 0 0 0-4.126.556c-2.295.713-3.392 1.865-3.788 4.103h3.681c.177-1.644 1.754-2.348 4.036-2.348 2.262 0 4.218.959 4.218 3.094 0 .096.003.515.003.88-1.18.015-3.102.019-5.602.13-2.297.1-5.42.54-6.836 2.637-.424.628-.728 1.912-.649 2.693.357 3.509 3.722 4.692 6.544 4.683 2.647-.007 4.947-.44 6.795-2.707z"/></g><g><path fill="#81c34d" d="M60.255 18.696l-6.002-11.94H50.21l8.108 15.257-3.099 5.85v.001h3.864L69.837 6.756h-3.65z"/></g></g></svg>