<svg xmlns="http://www.w3.org/2000/svg" width="48" height="54" viewBox="0 0 48 54"><g><g><path fill="#01396e" d="M36.599 31.642l4.455-7.717h4.77v7.717zM4.753 23.925h9.226l-4.455 7.717h-4.77zm-1.518-10.39a3.711 3.711 0 0 1 2.23-1.791l.616-.179c.04.058.085.112.137.162l7.462 7.167-9.26 2.682-1.507-5.2a3.712 3.712 0 0 1 .322-2.842zM37.732 2.396a3.708 3.708 0 0 1 1.031-.147c1.66 0 3.14 1.11 3.6 2.698l1.507 5.2-4.208 1.22a1.066 1.066 0 0 0-.138-.163l-7.46-7.166zM22.005 7.155l7.461 7.166-5.59 1.62a1.022 1.022 0 0 0-.138-.162l-7.462-7.167 5.591-1.62c.04.058.086.112.138.163zm7.893-2.287l7.462 7.167-5.591 1.619a1.022 1.022 0 0 0-.138-.162L24.17 6.325l5.59-1.619c.04.057.086.111.138.162zM15.845 18.065L8.383 10.9l5.591-1.62c.04.057.085.112.138.162l7.461 7.167-5.59 1.619a1.044 1.044 0 0 0-.138-.162zm-3.9 13.577l4.456-7.717h5.796l-4.456 7.717zm8.218 0l4.456-7.717h5.796l-4.456 7.717zm8.218 0l4.456-7.717h5.795l-4.455 7.717zm18.493-9.815h-35.78l34.367-9.956a1.05 1.05 0 0 0 .715-1.299l-1.798-6.208A5.87 5.87 0 0 0 38.763.152a5.81 5.81 0 0 0-1.615.23L4.88 9.73a5.796 5.796 0 0 0-3.484 2.793A5.796 5.796 0 0 0 .9 16.96l1.757 6.066V48.01a5.843 5.843 0 0 0 5.836 5.837h12.602a1.049 1.049 0 1 0 0-2.098H8.492a3.743 3.743 0 0 1-3.739-3.739V33.74h41.072v14.272a3.743 3.743 0 0 1-3.74 3.74H29.485a1.049 1.049 0 0 0 0 2.097h12.602a5.843 5.843 0 0 0 5.836-5.837V22.876c0-.58-.47-1.049-1.048-1.049z"/></g><g><path fill="#01396e" d="M23.327 46.14v-7.005l6.068 3.503zm9.214-3.502c0-.375-.2-.721-.525-.908l-9.213-5.32a1.05 1.05 0 0 0-1.573.908v10.64a1.048 1.048 0 0 0 1.573.907l9.213-5.319c.325-.187.525-.533.525-.908z"/></g></g></svg>