<svg xmlns="http://www.w3.org/2000/svg" width="19" height="26" viewBox="0 0 19 26"><g><g><path fill="#080809" d="M17.618 9.577c0 4.614-6.026 12.324-7.818 14.55-1.791-2.226-7.818-9.99-7.818-14.55 0-4.29 3.475-7.818 7.818-7.818s7.818 3.529 7.818 7.818zm-7.33 16.015c.327-.38 8.633-10.152 8.633-15.96C18.92 4.635 14.795.51 9.8.51 4.805.51.678 4.582.678 9.631c0 5.81 8.307 15.527 8.633 15.961l.488.598z"/></g><g><path fill="#080809" d="M11.972 9.631A2.178 2.178 0 0 1 9.8 11.803 2.178 2.178 0 0 1 7.63 9.63c0-1.194.977-2.172 2.171-2.172 1.195 0 2.172.978 2.172 2.172zm1.303 0c0-1.9-1.575-3.474-3.475-3.474-1.9 0-3.474 1.574-3.474 3.474 0 1.9 1.574 3.475 3.474 3.475 1.9 0 3.475-1.575 3.475-3.475z"/></g></g></svg>