<svg xmlns="http://www.w3.org/2000/svg" width="84" height="22" viewBox="0 0 84 22"><g><g><path fill="#007fb1" d="M61.539 1.585C61.539.71 62.266 0 63.163 0h18.734c.897 0 1.625.71 1.625 1.585v18.953c0 .876-.728 1.585-1.625 1.585H63.163c-.897 0-1.624-.71-1.624-1.585z"/></g><g><path fill="#231f20" d="M9.174 15.52H3.32V4.323H0V18.53h9.174z"/></g><g><path fill="#231f20" d="M12.159 7.178c1.158 0 1.879-.767 1.879-1.726-.022-.98-.72-1.726-1.857-1.726-1.136 0-1.878.746-1.878 1.726 0 .96.72 1.726 1.835 1.726zm1.66 11.353V8.542H10.5v9.99z"/></g><g><path fill="#231f20" d="M15.36 18.531h3.321v-5.578c0-.299.022-.597.11-.81.24-.597.786-1.215 1.703-1.215 1.202 0 1.682.916 1.682 2.259v5.344h3.32v-5.728c0-3.069-1.638-4.496-3.823-4.496-1.79 0-2.577 1-3.014 1.683h.022V8.541h-3.32c.043.938 0 9.99 0 9.99z"/></g><g><path fill="#231f20" d="M30.18 4.324h-3.32V18.53h3.32v-3.239l.83-1.044 2.6 4.283h4.085l-4.37-6.2 3.823-4.219h-3.997s-2.73 3.775-2.97 4.222v-8.01z"/></g><g><path fill="#231f20" d="M39.671 12.118c.088-.852.655-2.11 2.075-2.11 1.507 0 1.857 1.343 1.857 2.11zm6.903 2.246a8.19 8.19 0 0 0 .109-1.304c0-2.583-1.31-5.204-4.762-5.204-3.692 0-5.396 2.92-5.396 5.567 0 3.276 2.076 5.321 5.702 5.321 1.442 0 2.774-.213 3.866-.66l-.437-2.193c-.895.297-1.812.445-2.949.445-1.55 0-2.905-.636-3.014-1.993l6.88.021z"/></g><g><path fill="#231f20" d="M54.879 13.908c0 .255-.022.511-.066.724a1.955 1.955 0 0 1-1.944 1.556c-1.376 0-2.272-1.109-2.272-2.856 0-1.64.765-2.961 2.294-2.961 1.026 0 1.748.702 1.944 1.576.043.192.043.405.043.597v1.364zm0-4.86h-.043c-.482-.702-1.486-1.171-2.818-1.171-2.556 0-4.806 2.045-4.784 5.54 0 3.24 2.03 5.348 4.565 5.348 1.376 0 2.687-.596 3.342-1.746h.066l.13 1.512h2.95a55.214 55.214 0 0 1-.088-3.11V4.323h-3.32z"/></g><g><path fill="#fff" d="M66.542 7.166c1.158 0 1.879-.767 1.879-1.726-.022-.98-.721-1.726-1.857-1.726-1.135 0-1.878.746-1.878 1.726 0 .959.72 1.726 1.835 1.726zm1.66 11.354V8.53h-3.32v9.99z"/></g><g><path fill="#fff" d="M70.04 18.52h3.32V12.94c0-.298.022-.597.109-.81.24-.597.786-1.215 1.703-1.215 1.202 0 1.683.916 1.683 2.259v5.344h3.32v-5.728c0-3.068-1.638-4.496-3.823-4.496-1.791 0-2.577 1.001-3.014 1.683h.022V8.53h-3.32c.043.938 0 9.99 0 9.99z"/></g></g></svg>