<svg xmlns="http://www.w3.org/2000/svg" width="134" height="36" viewBox="0 0 134 36"><g><g opacity=".7"><path fill="#c4c4c4" d="M18.393 0h-5.647c-.01 7.68-.022 12.653-.032 20.332C10.287 12.838 7.858 7.877 5.423 0H0v36c1.83-.26 3.79-.51 5.623-.75.005-7.524.01-12.149.016-19.674C8.16 22.983 9.71 27.351 12.225 34.39c1.971-.225 4.137-.503 6.11-.702L18.393 0"/></g><g opacity=".7"><path fill="#c4c4c4" d="M39.488 0H23.843l-.063 33.213a475.378 475.378 0 0 1 15.715-1.167l.009-5.564c-3.41.21-6.671.428-10.069.656.006-2.976.013-5.438.018-8.414 2.483-.043 5.106-.005 7.642-.049l.009-5.59c-2.513.045-5.168.05-7.64.097.005-2.976.01-4.609.016-7.585a375.793 375.793 0 0 1 5.405-.021h.798c1.27 0 2.543-.002 3.84-.013.003-1.619-.038-3.945-.035-5.563"/></g><g opacity=".7"><path fill="#c4c4c4" d="M60.575.025h-17.42l-.009 5.533.75-.002c.757 0 1.514.007 2.27.015.757.007 1.513.014 2.27.014h.581l-.035 26.002c1.843-.069 3.816-.126 5.66-.173l.024-25.856c1.947-.008 3.96-.014 5.907-.018l.002-5.515"/></g><g opacity=".7"><path fill="#c4c4c4" d="M79.949 0h-15.71c0 10.421-.002 20.841-.004 31.262a452.592 452.592 0 0 1 5.597.01l-.004-12.88.934.002c.73 0 1.472-.003 2.217-.006.746-.003 1.494-.006 2.236-.006.764 0 1.522.003 2.262.013 0-1.585-.002-3.944-.004-5.529-.7-.007-1.414-.01-2.135-.01-.774 0-1.555.003-2.333.006-.777.003-1.55.006-2.311.006-.291 0-.58 0-.867-.002l-.003-7.29h5.561c1.518 0 3.037.001 4.569.008L79.949 0"/></g><g opacity=".7"><path fill="#c4c4c4" d="M83.615.025c.014 10.521-.036 21.043-.023 31.564 5.023.187 10.3.39 15.317.737l-.01-5.564c-3.174-.187-6.48-.411-9.657-.543-.014-9.01.035-17.183.021-26.194h-5.648"/></g><g opacity=".7"><path fill="#c4c4c4" d="M103.543.026l.065 32.642c1.84.142 3.744.295 5.582.458.007-11.026.022-22.066 0-33.1h-5.647"/></g><g opacity=".7"><path fill="#c4c4c4" d="M114.032.027c2.259 5.501 4.325 11.019 6.618 16.861a1225.949 1225.949 0 0 1-7.19 16.57c1.972.195 4.012.48 5.983.699 1.414-3.467 2.7-6.136 4.115-9.696 1.413 3.793 2.697 6.723 4.106 10.638 1.968.255 4.519.621 6.484.901-2.382-6.368-4.988-12.998-7.383-19.016 2.385-5.652 4.82-11.047 7.297-16.955l-6.167-.001c-1.53 3.652-2.58 5.999-4.047 9.475-1.365-3.617-2.281-5.958-3.649-9.476h-6.167"/></g></g></svg>