<svg xmlns="http://www.w3.org/2000/svg" width="164" height="40" viewBox="0 0 164 40"><g><g opacity=".7"><path fill="#c4c4c4" d="M14.278 9.33H25.46c6.004 0 8.265 3.04 7.915 7.512-.575 7.373-5.033 11.45-10.945 11.45h-2.986c-.81 0-1.355.536-1.576 1.991l-1.28 8.453c-.083.549-.372.871-.806.91H8.77c-.66 0-.895-.505-.722-1.598l4.282-27.113c.172-1.087.766-1.604 1.947-1.604z"/></g><g opacity=".7"><path fill="#c4c4c4" d="M96.446 17.162h-3.738c-.774 0-1.09.567-.843 1.288l4.658 13.643-4.59 6.488c-.383.541-.088 1.037.453 1.037h4.218c.63 0 .936-.16 1.253-.615l14.327-20.553c.442-.633.233-1.295-.49-1.296l-3.987-.004c-.685-.001-.96.27-1.352.84l-5.977 8.67-2.658-8.685c-.164-.536-.555-.813-1.274-.813zM77.828 29.867c-2.457 0-4.17-1.96-3.812-4.362.358-2.402 2.653-4.361 5.11-4.361 2.456 0 4.169 1.96 3.811 4.361-.357 2.403-2.652 4.362-5.11 4.362zm3.096 2.199c.38-.345.769-.526.712-.1l-.135 1.023c-.07.533.142.818.64.818h3.7c.622 0 .926-.252 1.08-1.216L89.2 18.28c.114-.72-.06-1.072-.606-1.072h-4.068c-.367 0-.545.206-.64.767l-.152.88c-.079.46-.289.54-.484.077-.691-1.635-2.451-2.367-4.92-2.317-5.708.118-9.556 4.45-9.967 10.004-.319 4.296 2.76 7.67 6.817 7.67 2.944 0 4.26-.878 5.743-2.223zm-23.79-18.409l3.194-.014c1.76-.008 2.865 1.163 2.778 2.8-.142 2.65-1.552 4.119-3.673 4.199l-3.393-.001zm5.69-4.827h-9.97c-.735 0-1.15.403-1.32 1.488l-3.442 22.066c-.148.949.083 1.373.748 1.373h4.165c.631 0 1.057-.41 1.187-1.241l.863-5.505c.17-1.079.48-1.603 1.124-1.603h4.472c5.127-.014 8.387-3.382 8.951-9.43.477-5.102-3.004-7.148-6.778-7.148z"/></g><g opacity=".7"><path fill="#c4c4c4" d="M159.876 33.242l3.756-23.771c.051-.325-.184-.59-.524-.59h-4.27c-.34 0-.66.265-.71.59l-3.756 23.77c-.051.326.184.592.523.592h4.271c.34 0 .66-.266.71-.591zM142.1 29.867c-2.457 0-4.17-1.96-3.812-4.362.358-2.402 2.653-4.361 5.11-4.361 2.456 0 4.168 1.96 3.811 4.361-.357 2.403-2.652 4.362-5.11 4.362zm3.096 2.199c.38-.345.769-.526.712-.1l-.135 1.023c-.07.533.142.818.64.818h3.7c.621 0 .926-.252 1.08-1.216l2.28-14.311c.114-.72-.06-1.072-.606-1.072h-4.068c-.367 0-.545.206-.641.767l-.15.88c-.08.46-.29.54-.485.077-.691-1.635-2.452-2.367-4.92-2.317-5.708.118-9.556 4.45-9.967 10.004-.319 4.296 2.76 7.67 6.817 7.67 2.944 0 4.26-.878 5.743-2.223zM120.311 20.64l1.094-6.984 3.194-.014c1.76-.008 2.865 1.163 2.778 2.8-.142 2.65-1.552 4.119-3.673 4.199l-3.393-.001zm6.784-11.811h-9.97c-.735 0-1.15.403-1.32 1.488l-3.443 22.066c-.147.949.084 1.373.749 1.373h4.164c.632 0 1.058-.41 1.188-1.241l.863-5.505c.17-1.079.479-1.603 1.124-1.603h4.472c5.127-.014 8.386-3.382 8.951-9.43.477-5.102-3.004-7.148-6.778-7.148z"/></g><g opacity=".7"><path fill="#c4c4c4" d="M7.286 0h11.195c3.153 0 6.892.103 9.394 2.309 1.67 1.473 2.547 3.821 2.345 6.342-.686 8.548-5.8 13.336-12.656 13.336h-5.52c-.94 0-1.563.622-1.828 2.309l-1.54 9.8c-.101.636-.377 1.011-.88 1.056H.901c-.766 0-1.038-.585-.837-1.853L5.029 1.86C5.228.6 5.917 0 7.286 0z"/></g><g opacity=".7"><path fill="#c4c4c4" d="M10.376 23.308l1.955-12.373c.172-1.087.766-1.604 1.947-1.604H25.46c1.852 0 3.347.289 4.52.821-1.124 7.608-6.045 11.835-12.488 11.835h-5.521c-.727 0-1.27.371-1.596 1.32z"/></g></g></svg>