<svg xmlns="http://www.w3.org/2000/svg" width="56" height="45" viewBox="0 0 56 45"><g><g><path fill="#01396e" d="M52.606 36.088a5.6 5.6 0 0 1-5.592 5.593H8.987a5.6 5.6 0 0 1-5.593-5.593V15.956a5.6 5.6 0 0 1 5.593-5.592h6.71a3.353 3.353 0 0 0 3.183-2.293l.71-2.125a3.349 3.349 0 0 1 3.18-2.293h10.46c1.445 0 2.725.922 3.183 2.295l.707 2.123a3.354 3.354 0 0 0 3.183 2.293h6.71a5.6 5.6 0 0 1 5.593 5.592v20.132zm-5.592-27.96h-6.711c-.481 0-.908-.307-1.06-.766l-.707-2.12a5.585 5.585 0 0 0-5.306-3.825H22.77a5.581 5.581 0 0 0-5.303 3.822l-.707 2.123a1.12 1.12 0 0 1-1.063.765h-6.71c-4.318 0-7.83 3.512-7.83 7.83v20.131c0 4.318 3.512 7.83 7.83 7.83h38.027c4.317 0 7.829-3.512 7.829-7.83V15.956c0-4.317-3.512-7.829-7.83-7.829z"/><path fill="none" stroke="#01396e" stroke-miterlimit="20" stroke-width=".8" d="M52.606 36.088a5.6 5.6 0 0 1-5.592 5.593H8.987a5.6 5.6 0 0 1-5.593-5.593V15.956a5.6 5.6 0 0 1 5.593-5.592h6.71a3.353 3.353 0 0 0 3.183-2.293l.71-2.125a3.349 3.349 0 0 1 3.18-2.293h10.46c1.445 0 2.725.922 3.183 2.295l.707 2.123a3.354 3.354 0 0 0 3.183 2.293h6.71a5.6 5.6 0 0 1 5.593 5.592v20.132zm-5.592-27.96h-6.711c-.481 0-.908-.307-1.06-.766l-.707-2.12a5.585 5.585 0 0 0-5.306-3.825H22.77a5.581 5.581 0 0 0-5.303 3.822l-.707 2.123a1.12 1.12 0 0 1-1.063.765h-6.71c-4.318 0-7.83 3.512-7.83 7.83v20.131c0 4.318 3.512 7.83 7.83 7.83h38.027c4.317 0 7.829-3.512 7.829-7.83V15.956c0-4.317-3.512-7.829-7.83-7.829z"/></g><g><path fill="#01396e" d="M28 37.207c-6.167 0-11.184-5.018-11.184-11.185 0-6.167 5.017-11.184 11.184-11.184 6.167 0 11.185 5.017 11.185 11.184 0 6.167-5.018 11.185-11.185 11.185zM28 12.6c-7.402 0-13.421 6.02-13.421 13.421 0 7.402 6.02 13.422 13.421 13.422 7.402 0 13.421-6.02 13.421-13.422 0-7.402-6.019-13.421-13.42-13.421z"/><path fill="none" stroke="#01396e" stroke-miterlimit="20" stroke-width=".8" d="M28 37.207c-6.167 0-11.184-5.018-11.184-11.185 0-6.167 5.017-11.184 11.184-11.184 6.167 0 11.185 5.017 11.185 11.184 0 6.167-5.018 11.185-11.185 11.185zM28 12.6c-7.402 0-13.421 6.02-13.421 13.421 0 7.402 6.02 13.422 13.421 13.422 7.402 0 13.421-6.02 13.421-13.422 0-7.402-6.019-13.421-13.42-13.421z"/></g><g><path fill="#01396e" d="M28 17.075c-4.934 0-8.947 4.013-8.947 8.947a1.119 1.119 0 0 0 2.236 0c0-3.7 3.011-6.71 6.711-6.71a1.119 1.119 0 0 0 0-2.237z"/><path fill="none" stroke="#01396e" stroke-miterlimit="20" stroke-width=".8" d="M28 17.075c-4.934 0-8.947 4.013-8.947 8.947a1.119 1.119 0 0 0 2.236 0c0-3.7 3.011-6.71 6.711-6.71a1.119 1.119 0 0 0 0-2.237z"/></g></g></svg>