<svg xmlns="http://www.w3.org/2000/svg" width="54" height="43" viewBox="0 0 54 43"><g><g><path fill="#01396e" d="M53.362 20.573L41.085 7.566a1.99 1.99 0 1 0-2.896 2.733l10.988 11.64L38.19 33.58a1.991 1.991 0 0 0 2.896 2.735l12.277-13.008a1.992 1.992 0 0 0 0-2.734z"/></g><g><path fill="#01396e" d="M16.53 33.58L5.543 21.939 16.53 10.298a1.991 1.991 0 0 0-2.896-2.733L1.357 20.572a1.992 1.992 0 0 0 0 2.734l12.278 13.008c.392.415.92.624 1.448.624a1.99 1.99 0 0 0 1.447-3.358z"/></g><g><path fill="#01396e" d="M30.58.858a1.993 1.993 0 0 0-2.269 1.667l-5.84 38.226a1.991 1.991 0 0 0 3.937.601l5.84-38.225A1.991 1.991 0 0 0 30.58.857z"/></g></g></svg>