<svg xmlns="http://www.w3.org/2000/svg" width="122" height="47" viewBox="0 0 122 47"><g><g opacity=".7"><path fill="#c4c4c4" d="M19.074 1c.296.138.484.424.72.65.385.336.67.78 1.046 1.125.463.444.759 1.006 1.144 1.509.67 1.016 1.262 2.1 1.568 3.284.315.809.365 1.686.345 2.554.02.79-.197 1.568-.553 2.278-.61 1.075-1.715 1.795-2.87 2.18-1.44.345-3.027.404-4.417-.207-.503-.277-1.075-.464-1.48-.898-.937-.77-1.479-2.022-1.301-3.235.276-2.16 1.568-4.013 2.948-5.61.128.236.02.512.109.758.118.523.305 1.075.7 1.45.483-.444.996-.887 1.41-1.4.375-.552.68-1.164.809-1.815.03-.828.108-1.696-.207-2.485z"/><path fill="none" stroke="#df4723" stroke-miterlimit="20" stroke-width=".09" d="M19.074 1c.296.138.484.424.72.65.385.336.67.78 1.046 1.125.463.444.759 1.006 1.144 1.509.67 1.016 1.262 2.1 1.568 3.284.315.809.365 1.686.345 2.554.02.79-.197 1.568-.553 2.278-.61 1.075-1.715 1.795-2.87 2.18-1.44.345-3.027.404-4.417-.207-.503-.277-1.075-.464-1.48-.898-.937-.77-1.479-2.022-1.301-3.235.276-2.16 1.568-4.013 2.948-5.61.128.236.02.512.109.758.118.523.305 1.075.7 1.45.483-.444.996-.887 1.41-1.4.375-.552.68-1.164.809-1.815.03-.828.108-1.696-.207-2.485z"/></g><g opacity=".7"><path fill="#c4c4c4" d="M1.008 10.852c2.307.02 4.625-.02 6.932.02 0 2.297.02 4.595-.01 6.893 1.638.03 3.275.01 4.922.01.02.177.03.355.03.532-.02 1.894.009 3.777-.02 5.67-1.648.02-3.285 0-4.931.01.03 3.403-.01 6.795.02 10.198.058.296.098.592.088.897-.03.276.138.503.197.76.128.591.454 1.124.829 1.587a4.131 4.131 0 0 0 2.021 1.105c.69.108 1.38.167 2.081.118.04.119.06.237.06.365-.01 1.775-.01 3.55 0 5.316 0 .246-.05.493-.09.73-.995 0-1.991.068-2.988 0-.591-.129-1.222-.07-1.794-.326-1.588-.375-3.107-1.164-4.241-2.357-1.667-1.608-2.564-3.876-2.929-6.124-.099-.247-.04-.533-.079-.799-.138-.542-.079-1.114-.099-1.667-.01-7.643-.01-15.295 0-22.938z"/><path fill="none" stroke="#df4723" stroke-miterlimit="20" stroke-width=".09" d="M1.008 10.852c2.307.02 4.625-.02 6.932.02 0 2.297.02 4.595-.01 6.893 1.638.03 3.275.01 4.922.01.02.177.03.355.03.532-.02 1.894.009 3.777-.02 5.67-1.648.02-3.285 0-4.931.01.03 3.403-.01 6.795.02 10.198.058.296.098.592.088.897-.03.276.138.503.197.76.128.591.454 1.124.829 1.587a4.131 4.131 0 0 0 2.021 1.105c.69.108 1.38.167 2.081.118.04.119.06.237.06.365-.01 1.775-.01 3.55 0 5.316 0 .246-.05.493-.09.73-.995 0-1.991.068-2.988 0-.591-.129-1.222-.07-1.794-.326-1.588-.375-3.107-1.164-4.241-2.357-1.667-1.608-2.564-3.876-2.929-6.124-.099-.247-.04-.533-.079-.799-.138-.542-.079-1.114-.099-1.667-.01-7.643-.01-15.295 0-22.938z"/></g><g opacity=".7"><path fill="#c4c4c4" d="M34.695 17.242c.414-.108.858-.03 1.272-.118.868-.109 1.726.03 2.584.06.602-.01 1.184.167 1.775.285 2.2.533 4.28 1.706 5.79 3.422.265.444.67.77.926 1.223.641 1.016 1.065 2.15 1.43 3.294.227.838.345 1.706.454 2.564.05 1.903.02 3.816.03 5.72-.01 3.797.01 7.593-.01 11.39-2.308-.03-4.606-.01-6.904-.02a.54.54 0 0 1-.088-.069c-.01-5.315 0-10.63 0-15.936.01-.651-.109-1.282-.247-1.904-.247-.63-.562-1.232-.996-1.745-.257-.306-.611-.503-.898-.77-.443-.295-.966-.433-1.469-.571-.266-.02-.532 0-.779-.09-1.055-.068-2.13.02-3.116.425-.72.345-1.39.818-1.864 1.48-.78.926-1.036 2.189-1.016 3.372 0 5.266.01 10.542 0 15.808-2.327.02-4.655-.01-6.982.02-.04-5.079 0-10.167-.02-15.246.01-.651-.01-1.302.04-1.953.128-.325.04-.68.138-.996.177-1.203.63-2.347 1.134-3.442.493-.956 1.085-1.873 1.854-2.633.601-.611 1.223-1.252 1.982-1.676 1.47-1.026 3.205-1.647 4.98-1.894z"/><path fill="none" stroke="#df4723" stroke-miterlimit="20" stroke-width=".09" d="M34.695 17.242c.414-.108.858-.03 1.272-.118.868-.109 1.726.03 2.584.06.602-.01 1.184.167 1.775.285 2.2.533 4.28 1.706 5.79 3.422.265.444.67.77.926 1.223.641 1.016 1.065 2.15 1.43 3.294.227.838.345 1.706.454 2.564.05 1.903.02 3.816.03 5.72-.01 3.797.01 7.593-.01 11.39-2.308-.03-4.606-.01-6.904-.02a.54.54 0 0 1-.088-.069c-.01-5.315 0-10.63 0-15.936.01-.651-.109-1.282-.247-1.904-.247-.63-.562-1.232-.996-1.745-.257-.306-.611-.503-.898-.77-.443-.295-.966-.433-1.469-.571-.266-.02-.532 0-.779-.09-1.055-.068-2.13.02-3.116.425-.72.345-1.39.818-1.864 1.48-.78.926-1.036 2.189-1.016 3.372 0 5.266.01 10.542 0 15.808-2.327.02-4.655-.01-6.982.02-.04-5.079 0-10.167-.02-15.246.01-.651-.01-1.302.04-1.953.128-.325.04-.68.138-.996.177-1.203.63-2.347 1.134-3.442.493-.956 1.085-1.873 1.854-2.633.601-.611 1.223-1.252 1.982-1.676 1.47-1.026 3.205-1.647 4.98-1.894z"/></g><g opacity=".7"><path fill="#c4c4c4" d="M117.337 17.183c.858-.02 1.706-.187 2.564-.05.463.06.937.05 1.4.07.089.858.02 1.726.04 2.584v3.451c0 .217.03.444-.06.651-.227-.167-.532-.108-.788-.177-1.046-.089-2.12-.04-3.107.355-1.173.404-2.2 1.262-2.771 2.376-.168.208-.168.503-.355.7-.306 1.105-.326 2.259-.306 3.393-.01 4.852.03 9.694-.02 14.546-2.298-.03-4.605 0-6.913-.02-.02-.02-.05-.059-.069-.078V29.155c-.03-.66.118-1.301.109-1.952.157-.316.118-.68.217-1.006.493-2.495 1.804-4.852 3.796-6.46.385-.433.937-.64 1.391-.986 1.47-.897 3.176-1.331 4.872-1.568z"/><path fill="none" stroke="#df4723" stroke-miterlimit="20" stroke-width=".09" d="M117.337 17.183c.858-.02 1.706-.187 2.564-.05.463.06.937.05 1.4.07.089.858.02 1.726.04 2.584v3.451c0 .217.03.444-.06.651-.227-.167-.532-.108-.788-.177-1.046-.089-2.12-.04-3.107.355-1.173.404-2.2 1.262-2.771 2.376-.168.208-.168.503-.355.7-.306 1.105-.326 2.259-.306 3.393-.01 4.852.03 9.694-.02 14.546-2.298-.03-4.605 0-6.913-.02-.02-.02-.05-.059-.069-.078V29.155c-.03-.66.118-1.301.109-1.952.157-.316.118-.68.217-1.006.493-2.495 1.804-4.852 3.796-6.46.385-.433.937-.64 1.391-.986 1.47-.897 3.176-1.331 4.872-1.568z"/></g><g opacity=".7"><path fill="#c4c4c4" d="M15.12 17.765c2.327.04 4.655-.01 6.982.02 0 9.023-.01 18.037 0 27.05 0 .09 0 .267-.138.237H15.14c-.06-1.489-.01-2.988-.03-4.477.01-7.603 0-15.217.01-22.83z"/><path fill="none" stroke="#df4723" stroke-miterlimit="20" stroke-width=".09" d="M15.12 17.765c2.327.04 4.655-.01 6.982.02 0 9.023-.01 18.037 0 27.05 0 .09 0 .267-.138.237H15.14c-.06-1.489-.01-2.988-.03-4.477.01-7.603 0-15.217.01-22.83z"/></g><g opacity=".7"><path fill="#c4c4c4" d="M85.306 31.078c-.138-.345-.01-.75-.03-1.114.158-.503.207-1.035.395-1.539.473-1.114 1.055-2.208 1.903-3.086.395-.326.73-.72 1.183-.967.336-.177.661-.374 1.006-.532.641-.188 1.263-.483 1.933-.483.612-.148 1.243-.07 1.864-.06 1.627.227 3.264.927 4.32 2.22.108.256-.257.275-.405.374-.64.355-1.36.533-2.002.898-.286.049-.532.226-.808.315-2.042.888-4.123 1.667-6.144 2.594-1.085.424-2.16.877-3.215 1.38zm2.84 4.99c.592-.226 1.164-.522 1.765-.73.868-.335 1.716-.739 2.584-1.074 1.795-.828 3.649-1.519 5.463-2.298.434-.237.927-.345 1.351-.602.484-.187.967-.355 1.44-.572.415-.246.888-.345 1.312-.562.562-.227 1.104-.483 1.676-.69.582-.325 1.233-.483 1.815-.799.158-.108.414-.079.513-.266-.168-.237-.08-.533-.168-.79-.128-.463-.256-.916-.365-1.37-.444-1.37-1.085-2.682-1.952-3.826-1.056-1.529-2.505-2.761-4.113-3.669-1.055-.64-2.238-1.006-3.422-1.321-.73-.089-1.43-.345-2.17-.335-.67-.09-1.36-.129-2.021-.01-1.174.02-2.298.305-3.412.63-1.943.681-3.787 1.717-5.276 3.147-.444.414-.809.897-1.233 1.321-.66.848-1.262 1.746-1.716 2.712-.64 1.45-1.252 2.969-1.321 4.576-.217.77-.148 1.578-.158 2.367-.02.503.059.996.158 1.48-.03.512.167.985.236 1.478.168 1.046.632 2.012 1.056 2.979 1.163 2.386 2.997 4.457 5.295 5.808 1.51.927 3.186 1.588 4.941 1.834 1.43.227 2.9.267 4.34.08.492.039.966-.178 1.459-.208 2.1-.493 4.161-1.38 5.75-2.87a8 8 0 0 0 1.291-1.292c.631-.64 1.085-1.42 1.539-2.189.433-.818.789-1.686 1.045-2.584-.138-.059-.296-.039-.434-.039-2.308.01-4.605-.01-6.913 0-.217 0-.217.296-.355.414-.395.572-.898 1.055-1.43 1.509-.77.552-1.677.848-2.574 1.114-.237.03-.464.02-.68.109-.553.04-1.115.02-1.677.01a14.81 14.81 0 0 1-1.844-.454c-.927-.473-1.834-1.016-2.534-1.785-.178-.217-.464-.384-.523-.67.158-.07.306-.178.483-.208.286-.049.503-.276.78-.355z"/><path fill="none" stroke="#df4723" stroke-miterlimit="20" stroke-width=".09" d="M85.306 31.078c-.138-.345-.01-.75-.03-1.114.158-.503.207-1.035.395-1.539.473-1.114 1.055-2.208 1.903-3.086.395-.326.73-.72 1.183-.967.336-.177.661-.374 1.006-.532.641-.188 1.263-.483 1.933-.483.612-.148 1.243-.07 1.864-.06 1.627.227 3.264.927 4.32 2.22.108.256-.257.275-.405.374-.64.355-1.36.533-2.002.898-.286.049-.532.226-.808.315-2.042.888-4.123 1.667-6.144 2.594-1.085.424-2.16.877-3.215 1.38zm2.84 4.99c.592-.226 1.164-.522 1.765-.73.868-.335 1.716-.739 2.584-1.074 1.795-.828 3.649-1.519 5.463-2.298.434-.237.927-.345 1.351-.602.484-.187.967-.355 1.44-.572.415-.246.888-.345 1.312-.562.562-.227 1.104-.483 1.676-.69.582-.325 1.233-.483 1.815-.799.158-.108.414-.079.513-.266-.168-.237-.08-.533-.168-.79-.128-.463-.256-.916-.365-1.37-.444-1.37-1.085-2.682-1.952-3.826-1.056-1.529-2.505-2.761-4.113-3.669-1.055-.64-2.238-1.006-3.422-1.321-.73-.089-1.43-.345-2.17-.335-.67-.09-1.36-.129-2.021-.01-1.174.02-2.298.305-3.412.63-1.943.681-3.787 1.717-5.276 3.147-.444.414-.809.897-1.233 1.321-.66.848-1.262 1.746-1.716 2.712-.64 1.45-1.252 2.969-1.321 4.576-.217.77-.148 1.578-.158 2.367-.02.503.059.996.158 1.48-.03.512.167.985.236 1.478.168 1.046.632 2.012 1.056 2.979 1.163 2.386 2.997 4.457 5.295 5.808 1.51.927 3.186 1.588 4.941 1.834 1.43.227 2.9.267 4.34.08.492.039.966-.178 1.459-.208 2.1-.493 4.161-1.38 5.75-2.87a8 8 0 0 0 1.291-1.292c.631-.64 1.085-1.42 1.539-2.189.433-.818.789-1.686 1.045-2.584-.138-.059-.296-.039-.434-.039-2.308.01-4.605-.01-6.913 0-.217 0-.217.296-.355.414-.395.572-.898 1.055-1.43 1.509-.77.552-1.677.848-2.574 1.114-.237.03-.464.02-.68.109-.553.04-1.115.02-1.677.01a14.81 14.81 0 0 1-1.844-.454c-.927-.473-1.834-1.016-2.534-1.785-.178-.217-.464-.384-.523-.67.158-.07.306-.178.483-.208.286-.049.503-.276.78-.355z"/></g><g opacity=".7"><path fill="#c4c4c4" d="M70.947 32.42c-.059 1.045-.454 2.04-.917 2.978-.78 1.47-2.09 2.593-3.58 3.303-.227.119-.523.109-.68.326-.276 0-.553.01-.819.109-.848.02-1.726.098-2.554-.139-.355-.167-.75-.236-1.105-.424-.443-.246-.946-.414-1.311-.789-.69-.483-1.223-1.144-1.706-1.824-.385-.66-.77-1.341-.947-2.09-.197-.395-.178-.839-.286-1.253-.03-1.055-.089-2.14.158-3.166.108-.325.177-.67.296-.996.286-.523.463-1.104.838-1.578.197-.414.542-.72.819-1.075.74-.848 1.755-1.39 2.78-1.814.385-.089.76-.286 1.164-.286.819-.207 1.667-.04 2.476.108 1.065.385 2.12.918 2.948 1.707.306.286.533.64.839.927a8.405 8.405 0 0 1 1.587 5.976zM77.96 5.714c-2.16-.02-4.32 0-6.48-.01-.157.02-.344-.05-.473.07.02 4.634 0 9.279.01 13.914-.01.168.03.335-.04.493-.196-.03-.295-.217-.443-.325-.996-.858-2.11-1.588-3.353-2.012-.838-.326-1.716-.493-2.603-.651-1.006-.02-2.022-.05-3.038.01-.108.03-.207.059-.315.069-2.259.315-4.37 1.37-6.105 2.82-.966.908-1.933 1.854-2.613 2.998-.799 1.134-1.312 2.436-1.805 3.718-.227.809-.454 1.608-.552 2.436-.188 1.272-.109 2.574-.09 3.856.05.335.159.65.169.986a13.72 13.72 0 0 0 .926 3.166c.365.976.957 1.864 1.5 2.751.384.493.759 1.006 1.222 1.44.69.68 1.371 1.42 2.239 1.894 1.025.779 2.238 1.242 3.422 1.696.434.079.838.325 1.282.335.375.03.72.207 1.095.187.197-.02.374.119.581.099.957.03 1.923.03 2.88 0 .158 0 .316-.07.483-.079.66.01 1.272-.247 1.913-.335.839-.306 1.736-.503 2.515-.957 1.154-.532 2.2-1.282 3.136-2.13 1.184-1.026 2.14-2.308 2.85-3.708.306-.621.651-1.223.848-1.893.375-.927.543-1.914.671-2.89.217-.858.148-1.755.168-2.643V5.714z"/><path fill="none" stroke="#df4723" stroke-miterlimit="20" stroke-width=".09" d="M70.947 32.42c-.059 1.045-.454 2.04-.917 2.978-.78 1.47-2.09 2.593-3.58 3.303-.227.119-.523.109-.68.326-.276 0-.553.01-.819.109-.848.02-1.726.098-2.554-.139-.355-.167-.75-.236-1.105-.424-.443-.246-.946-.414-1.311-.789-.69-.483-1.223-1.144-1.706-1.824-.385-.66-.77-1.341-.947-2.09-.197-.395-.178-.839-.286-1.253-.03-1.055-.089-2.14.158-3.166.108-.325.177-.67.296-.996.286-.523.463-1.104.838-1.578.197-.414.542-.72.819-1.075.74-.848 1.755-1.39 2.78-1.814.385-.089.76-.286 1.164-.286.819-.207 1.667-.04 2.476.108 1.065.385 2.12.918 2.948 1.707.306.286.533.64.839.927a8.405 8.405 0 0 1 1.587 5.976zM77.96 5.714c-2.16-.02-4.32 0-6.48-.01-.157.02-.344-.05-.473.07.02 4.634 0 9.279.01 13.914-.01.168.03.335-.04.493-.196-.03-.295-.217-.443-.325-.996-.858-2.11-1.588-3.353-2.012-.838-.326-1.716-.493-2.603-.651-1.006-.02-2.022-.05-3.038.01-.108.03-.207.059-.315.069-2.259.315-4.37 1.37-6.105 2.82-.966.908-1.933 1.854-2.613 2.998-.799 1.134-1.312 2.436-1.805 3.718-.227.809-.454 1.608-.552 2.436-.188 1.272-.109 2.574-.09 3.856.05.335.159.65.169.986a13.72 13.72 0 0 0 .926 3.166c.365.976.957 1.864 1.5 2.751.384.493.759 1.006 1.222 1.44.69.68 1.371 1.42 2.239 1.894 1.025.779 2.238 1.242 3.422 1.696.434.079.838.325 1.282.335.375.03.72.207 1.095.187.197-.02.374.119.581.099.957.03 1.923.03 2.88 0 .158 0 .316-.07.483-.079.66.01 1.272-.247 1.913-.335.839-.306 1.736-.503 2.515-.957 1.154-.532 2.2-1.282 3.136-2.13 1.184-1.026 2.14-2.308 2.85-3.708.306-.621.651-1.223.848-1.893.375-.927.543-1.914.671-2.89.217-.858.148-1.755.168-2.643V5.714z"/></g></g></svg>