<svg xmlns="http://www.w3.org/2000/svg" width="90" height="90" viewBox="0 0 90 90"><g><g opacity=".3"><path fill="#01396e" d="M16 90C7.163 90 0 82.837 0 74V16C0 7.163 7.163 0 16 0h58c8.837 0 16 7.163 16 16v58c0 8.837-7.163 16-16 16z"/></g><g><path fill="#01396e" d="M68.816 45.404h-2.018v-2.019H68.815zm1.009-4.037h-1.207a22.923 22.923 0 0 0-2.719-8.245 1.01 1.01 0 0 0-1.763.982 20.915 20.915 0 0 1 2.447 7.263h-.795a1.01 1.01 0 0 0-1.009 1.01v4.036c0 .557.452 1.009 1.01 1.009h4.036a1.01 1.01 0 0 0 1.01-1.01v-4.036a1.01 1.01 0 0 0-1.01-1.009z"/><path fill="none" stroke="#01396e" stroke-miterlimit="20" stroke-width=".5" d="M68.816 45.404h-2.018v-2.019h.917s0 0 0 0h1.1zm1.009-4.037h-1.207a22.923 22.923 0 0 0-2.719-8.245 1.01 1.01 0 0 0-1.763.982 20.915 20.915 0 0 1 2.447 7.263h-.795a1.01 1.01 0 0 0-1.009 1.01v4.036c0 .557.452 1.009 1.01 1.009h4.036a1.01 1.01 0 0 0 1.01-1.01v-4.036a1.01 1.01 0 0 0-1.01-1.009z"/></g><g><path fill="#01396e" d="M50.357 58.422H39.643l-3.275-8.679h2.577a1.01 1.01 0 1 0 0-2.018H36.61l7.38-13.507V45.88a3.032 3.032 0 0 0-2.018 2.854A3.03 3.03 0 0 0 45 51.76a3.03 3.03 0 0 0 3.027-3.027 3.032 3.032 0 0 0-2.018-2.854V34.218l7.38 13.507h-2.334a1.01 1.01 0 1 0 0 2.018h2.577zm1.411 3.74c-.19.191-.444.296-.713.296h-12.11a1.01 1.01 0 0 1 0-2.018h12.113a1.01 1.01 0 0 1 .71 1.723zm-1.722 6.654H39.954v-4.34h10.092zM45 47.725a1.01 1.01 0 0 1 0 2.018 1.01 1.01 0 0 1 0-2.018zm11.099.97l-.003-.046a.988.988 0 0 0-.008-.064c-.002-.013-.003-.026-.006-.038a1.025 1.025 0 0 0-.017-.074l-.007-.027c-.009-.03-.02-.06-.03-.089l-.004-.01a.996.996 0 0 0-.047-.097L45.885 29.782a1.01 1.01 0 0 0-1.77 0L34.022 48.25a.999.999 0 0 0-.047.098l-.004.01a.99.99 0 0 0-.03.088l-.008.028a.97.97 0 0 0-.017.073l-.006.038a1.035 1.035 0 0 0-.008.064l-.002.047-.002.038.001.02a.907.907 0 0 0 .014.149.966.966 0 0 0 .044.168l.006.02 3.64 9.644a3.037 3.037 0 0 0-1.687 2.714c0 1.316.844 2.438 2.019 2.854v5.522c0 .558.452 1.01 1.009 1.01h12.11a1.01 1.01 0 0 0 1.009-1.01v-5.52c.42-.149.806-.39 1.131-.715a3.008 3.008 0 0 0 .887-2.14 3.03 3.03 0 0 0-1.686-2.714l3.64-9.646c.002-.006.003-.013.006-.019a1.013 1.013 0 0 0 .043-.168l.007-.042a.97.97 0 0 0 .005-.06l.003-.047v-.02l-.001-.038z"/><path fill="none" stroke="#01396e" stroke-miterlimit="20" stroke-width=".5" d="M50.357 58.422H39.643l-3.275-8.679h2.577a1.01 1.01 0 1 0 0-2.018H36.61l7.38-13.507V45.88a3.032 3.032 0 0 0-2.018 2.854A3.03 3.03 0 0 0 45 51.76a3.03 3.03 0 0 0 3.027-3.027 3.032 3.032 0 0 0-2.018-2.854V34.218l7.38 13.507h-2.334a1.01 1.01 0 1 0 0 2.018h2.577zm1.411 3.74c-.19.191-.444.296-.713.296h-12.11a1.01 1.01 0 0 1 0-2.018h12.113a1.01 1.01 0 0 1 .71 1.723zm-1.722 6.654H39.954v-4.34h10.092zM45 47.725a1.01 1.01 0 0 1 0 2.018 1.01 1.01 0 0 1 0-2.018zm11.099.97l-.003-.046a.988.988 0 0 0-.008-.064c-.002-.013-.003-.026-.006-.038a1.025 1.025 0 0 0-.017-.074l-.007-.027c-.009-.03-.02-.06-.03-.089l-.004-.01a.996.996 0 0 0-.047-.097L45.885 29.782a1.01 1.01 0 0 0-1.77 0L34.022 48.25a.999.999 0 0 0-.047.098l-.004.01a.99.99 0 0 0-.03.088l-.008.028a.97.97 0 0 0-.017.073l-.006.038a1.035 1.035 0 0 0-.008.064l-.002.047-.002.038.001.02a.907.907 0 0 0 .014.149.966.966 0 0 0 .044.168l.006.02 3.64 9.644a3.037 3.037 0 0 0-1.687 2.714c0 1.316.844 2.438 2.019 2.854v5.522c0 .558.452 1.01 1.009 1.01h12.11a1.01 1.01 0 0 0 1.009-1.01v-5.52c.42-.149.806-.39 1.131-.715a3.008 3.008 0 0 0 .887-2.14 3.03 3.03 0 0 0-1.686-2.714l3.64-9.646c.002-.006.003-.013.006-.019a1.013 1.013 0 0 0 .043-.168l.007-.042a.97.97 0 0 0 .005-.06l.003-.047v-.02l-.001-.038z"/></g><g><path fill="#01396e" d="M23.202 45.404h-2.018v-2.019h2.018zm2.271-12.673a1.009 1.009 0 0 0-1.372.39 22.923 22.923 0 0 0-2.72 8.246h-1.206a1.01 1.01 0 0 0-1.01 1.01v4.036c0 .557.452 1.009 1.01 1.009h4.036a1.01 1.01 0 0 0 1.01-1.01v-4.036a1.01 1.01 0 0 0-1.01-1.009h-.794a20.917 20.917 0 0 1 2.447-7.263 1.01 1.01 0 0 0-.39-1.373z"/><path fill="none" stroke="#01396e" stroke-miterlimit="20" stroke-width=".5" d="M23.202 45.404h-2.018v-2.019h2.018zm2.271-12.673a1.009 1.009 0 0 0-1.372.39 22.923 22.923 0 0 0-2.72 8.246h-1.206a1.01 1.01 0 0 0-1.01 1.01v4.036c0 .557.452 1.009 1.01 1.009h4.036a1.01 1.01 0 0 0 1.01-1.01v-4.036a1.01 1.01 0 0 0-1.01-1.009h-.794a20.917 20.917 0 0 1 2.447-7.263 1.01 1.01 0 0 0-.39-1.373z"/></g><g><path fill="#01396e" d="M67.807 23.202a1.01 1.01 0 0 1 0-2.018 1.01 1.01 0 0 1 0 2.018zm-21.798 0h-2.018v-2.018h2.018zm-23.816 0a1.01 1.01 0 0 1 0-2.018 1.01 1.01 0 0 1 0 2.018zm45.614-4.036a3.032 3.032 0 0 0-2.854 2.018H48.027v-1.01a1.01 1.01 0 0 0-1.009-1.008h-4.036a1.01 1.01 0 0 0-1.01 1.009v1.01H25.047a3.032 3.032 0 0 0-2.854-2.02 3.03 3.03 0 0 0-3.027 3.028 3.03 3.03 0 0 0 3.027 3.028 3.032 3.032 0 0 0 2.854-2.019h10.145c-2.152.901-4.126 2.07-5.75 3.44a1.01 1.01 0 0 0 1.3 1.543c2.895-2.44 7.028-4.184 11.23-4.769v.796c0 .557.452 1.009 1.01 1.009h4.036a1.01 1.01 0 0 0 1.01-1.01v-.795c4.202.585 8.334 2.328 11.23 4.77a1.006 1.006 0 0 0 1.422-.121 1.009 1.009 0 0 0-.122-1.423c-1.624-1.37-3.598-2.539-5.75-3.44h10.145a3.032 3.032 0 0 0 2.854 2.019 3.03 3.03 0 0 0 3.027-3.028 3.03 3.03 0 0 0-3.027-3.027z"/><path fill="none" stroke="#01396e" stroke-miterlimit="20" stroke-width=".5" d="M67.807 23.202a1.01 1.01 0 0 1 0-2.018 1.01 1.01 0 0 1 0 2.018zm-21.798 0h-2.018v-2.018h2.018zm-23.816 0a1.01 1.01 0 0 1 0-2.018 1.01 1.01 0 0 1 0 2.018zm45.614-4.036a3.032 3.032 0 0 0-2.854 2.018H48.027v-1.01a1.01 1.01 0 0 0-1.009-1.008h-4.036a1.01 1.01 0 0 0-1.01 1.009v1.01H25.047a3.032 3.032 0 0 0-2.854-2.02 3.03 3.03 0 0 0-3.027 3.028 3.03 3.03 0 0 0 3.027 3.028 3.032 3.032 0 0 0 2.854-2.019h10.145c-2.152.901-4.126 2.07-5.75 3.44a1.01 1.01 0 0 0 1.3 1.543c2.895-2.44 7.028-4.184 11.23-4.769v.796c0 .557.452 1.009 1.01 1.009h4.036a1.01 1.01 0 0 0 1.01-1.01v-.795c4.202.585 8.334 2.328 11.23 4.77a1.006 1.006 0 0 0 1.422-.121 1.009 1.009 0 0 0-.122-1.423c-1.624-1.37-3.598-2.539-5.75-3.44h10.145a3.032 3.032 0 0 0 2.854 2.019 3.03 3.03 0 0 0 3.027-3.028 3.03 3.03 0 0 0-3.027-3.027z"/></g></g></svg>