<svg xmlns="http://www.w3.org/2000/svg" width="115" height="38" viewBox="0 0 115 38"><g><g opacity=".7"><path fill="#c4c4c4" d="M57.008.658l-7.693 35.964H40.01L47.707.658zm46.86 23.22l-2.82-13.503-4.897 13.504zm1.54 7.37H93.473l-1.941 5.374h-9.767l13.96-33.327c.668-1.6 2.174-2.637 3.96-2.637h7.941l7.51 35.964h-8.603zm-23.16-6.37c-.03 7.48-6.422 12.306-16.197 12.306-4.16-.043-8.174-.913-10.346-1.91l1.685-7.882c2.163 1.009 4.878 2.346 9.555 2.273 2.678-.042 5.542-1.106 5.569-3.52.014-1.576-1.202-2.707-4.825-4.469-3.527-1.722-8.207-4.609-8.146-9.788C59.595 4.889 66.068 0 75.263 0c3.585 0 6.465.781 8.705 1.594L82.333 9.22c-4.165-1.917-7.842-1.782-9.173-1.609-2.689.352-3.916 1.723-3.946 3.012-.09 4.24 13.076 4.765 13.034 14.256zM43.714.659L28.64 36.622h-9.833L11.388 7.92c-.45-1.767-.84-2.416-2.21-3.159C6.942 3.546 3.25 2.408 0 1.701L.22.657H16.05c2.017 0 3.832 1.341 4.29 3.666l3.918 20.812L33.942.658z"/></g></g></svg>