<svg xmlns="http://www.w3.org/2000/svg" width="39" height="51" viewBox="0 0 39 51"><g><g><path fill="#01396e" d="M35.95 34.205l-.006 5.702c-.004 4.52-3.417 8.207-7.608 8.207h-9.978c-2.747 0-5.29-1.614-6.635-4.2L3.13 27.4l.424-.354.031-.028a3.61 3.61 0 0 1 2.711-.974A3.691 3.691 0 0 1 8.9 27.423l2.49 3.03a.813.813 0 0 0 1.442-.516l.015-20.853c0-1.366 1.033-2.477 2.279-2.477 1.245 0 2.278 1.113 2.278 2.479v12.573l-.002.132.002.058v5.375a.813.813 0 0 0 1.627 0v-5.537c0-1.318 1.006-2.347 2.22-2.347h.072c1.246 0 2.283 1.086 2.283 2.452v4.92a.813.813 0 0 0 1.627 0v-3.86c0-1.367.987-2.479 2.24-2.479 1.246 0 2.234 1.112 2.234 2.479v3.64a.813.813 0 0 0 1.627 0v-1.97c0-1.367 1.04-2.437 2.287-2.437h.068c1.243 0 2.257 1.088 2.26 2.45.01 4.312.008 5.756.002 9.67zm-2.262-13.747h-.068a3.73 3.73 0 0 0-2.513.956c-.559-1.546-1.978-2.657-3.64-2.657a3.776 3.776 0 0 0-2.697 1.161c-.65-1.314-1.951-2.205-3.448-2.205h-.073a3.54 3.54 0 0 0-2.22.74V9.085c0-2.264-1.762-4.105-3.905-4.105-2.141 0-3.895 1.84-3.896 4.102l-.018 18.584-1.051-1.277a5.305 5.305 0 0 0-3.749-1.97 5.22 5.22 0 0 0-3.91 1.384l-.915.759a.813.813 0 0 0-.203 1.001l8.897 17.102c1.627 3.126 4.722 5.075 8.078 5.075h10.027v-.008c5.084 0 9.206-4.412 9.21-9.828.003-2.424-.006-4.23-.005-5.694.005-3.917.001-5.363-.009-9.678-.005-2.258-1.754-4.075-3.892-4.075z"/><path fill="none" stroke="#01396e" stroke-miterlimit="20" stroke-width=".5" d="M35.95 34.205l-.006 5.702c-.004 4.52-3.417 8.207-7.608 8.207h-9.978c-2.747 0-5.29-1.614-6.635-4.2L3.13 27.4l.424-.354.031-.028a3.61 3.61 0 0 1 2.711-.974A3.691 3.691 0 0 1 8.9 27.423l2.49 3.03a.813.813 0 0 0 1.442-.516l.015-20.853c0-1.366 1.033-2.477 2.279-2.477 1.245 0 2.278 1.113 2.278 2.479v12.573l-.002.132.002.058v5.375a.813.813 0 0 0 1.627 0v-5.537c0-1.318 1.006-2.347 2.22-2.347h.072c1.246 0 2.283 1.086 2.283 2.452v4.92a.813.813 0 0 0 1.627 0v-3.86c0-1.367.987-2.479 2.24-2.479 1.246 0 2.234 1.112 2.234 2.479v3.64a.813.813 0 0 0 1.627 0v-1.97c0-1.367 1.04-2.437 2.287-2.437h.068c1.243 0 2.257 1.088 2.26 2.45.01 4.312.008 5.756.002 9.67zm-2.262-13.747h-.068a3.73 3.73 0 0 0-2.513.956c-.559-1.546-1.978-2.657-3.64-2.657a3.776 3.776 0 0 0-2.697 1.161c-.65-1.314-1.951-2.205-3.448-2.205h-.073a3.54 3.54 0 0 0-2.22.74V9.085c0-2.264-1.762-4.105-3.905-4.105-2.141 0-3.895 1.84-3.896 4.102l-.018 18.584-1.051-1.277a5.305 5.305 0 0 0-3.749-1.97 5.22 5.22 0 0 0-3.91 1.384l-.915.759a.813.813 0 0 0-.203 1.001l8.897 17.102c1.627 3.126 4.722 5.075 8.078 5.075h10.027v-.008c5.084 0 9.206-4.412 9.21-9.828.003-2.424-.006-4.23-.005-5.694.005-3.917.001-5.363-.009-9.678-.005-2.258-1.754-4.075-3.892-4.075z"/></g><g><path fill="#01396e" d="M8.644 9.437c.45 0 .814-.364.814-.813a5.637 5.637 0 0 1 11.273 0 .813.813 0 0 0 1.627 0 7.263 7.263 0 0 0-14.527 0c0 .449.364.813.813.813z"/><path fill="none" stroke="#01396e" stroke-miterlimit="20" stroke-width=".5" d="M8.644 9.437c.45 0 .814-.364.814-.813a5.637 5.637 0 0 1 11.273 0 .813.813 0 0 0 1.627 0 7.263 7.263 0 0 0-14.527 0c0 .449.364.813.813.813z"/></g></g></svg>