<svg xmlns="http://www.w3.org/2000/svg" width="46" height="50" viewBox="0 0 46 50"><g><g><path fill="#01396e" d="M31.298 47.253c-6.468 0-11.727-5.26-11.727-11.727 0-6.468 5.25-11.728 11.727-11.728s11.727 5.26 11.727 11.728c0 6.467-5.26 11.727-11.727 11.727zM6.815 40.576a3.344 3.344 0 0 1-3.353-3.364V6.752c0-1.877 1.487-3.404 3.353-3.404h15.11v6.278a4.4 4.4 0 0 0 4.392 4.401h5.789v7.795c-.3-.01-.539-.04-.798-.04-3.484 0-6.687 1.338-9.103 3.434H9.53a1 1 0 0 0-.998.998 1 1 0 0 0 .998.998H20.35c-.709.998-1.298 1.996-1.757 3.094H9.53a1 1 0 0 0-.998.998c0 .549.449.998.998.998h8.414c-.25.998-.38 2.106-.38 3.214 0 1.796.35 3.573.978 5.07H6.815zm17.107-35.72l6.817 7.175h-4.422a2.41 2.41 0 0 1-2.395-2.405zm10.18 17.226v-9.063c0-.259-.12-.499-.29-.688L23.653 1.66c-.19-.199-.459-.309-.728-.309H6.815c-2.974 0-5.35 2.425-5.35 5.4v30.46a5.333 5.333 0 0 0 5.35 5.36h12.716c2.405 3.992 6.776 6.667 11.757 6.667 7.565 0 13.743-6.148 13.743-13.723.01-6.618-4.741-12.147-10.929-13.434z"/><path fill="none" stroke="#01396e" stroke-miterlimit="20" stroke-width=".3" d="M31.298 47.253c-6.468 0-11.727-5.26-11.727-11.727 0-6.468 5.25-11.728 11.727-11.728s11.727 5.26 11.727 11.728c0 6.467-5.26 11.727-11.727 11.727zM6.815 40.576a3.344 3.344 0 0 1-3.353-3.364V6.752c0-1.877 1.487-3.404 3.353-3.404h15.11v6.278a4.4 4.4 0 0 0 4.392 4.401h5.789v7.795c-.3-.01-.539-.04-.798-.04-3.484 0-6.687 1.338-9.103 3.434H9.53a1 1 0 0 0-.998.998 1 1 0 0 0 .998.998H20.35c-.709.998-1.298 1.996-1.757 3.094H9.53a1 1 0 0 0-.998.998c0 .549.449.998.998.998h8.414c-.25.998-.38 2.106-.38 3.214 0 1.796.35 3.573.978 5.07H6.815zm17.107-35.72l6.817 7.175h-4.422a2.41 2.41 0 0 1-2.395-2.405zm10.18 17.226v-9.063c0-.259-.12-.499-.29-.688L23.653 1.66c-.19-.199-.459-.309-.728-.309H6.815c-2.974 0-5.35 2.425-5.35 5.4v30.46a5.333 5.333 0 0 0 5.35 5.36h12.716c2.405 3.992 6.776 6.667 11.757 6.667 7.565 0 13.743-6.148 13.743-13.723.01-6.618-4.741-12.147-10.929-13.434z"/></g><g><path fill="#01396e" d="M32.006 28.16c-.19-.2-.449-.32-.728-.32-.28 0-.54.12-.729.32L24.7 34.437a.994.994 0 0 0 .05 1.408c.4.38 1.048.349 1.427-.05l4.133-4.421v10.898a1 1 0 0 0 .998.998c.548 0 .998-.449.998-.998V31.374l4.102 4.421c.2.21.459.32.728.32.24 0 .48-.09.679-.27.4-.38.429-1.008.05-1.407z"/><path fill="none" stroke="#01396e" stroke-miterlimit="20" stroke-width=".3" d="M32.006 28.16c-.19-.2-.449-.32-.728-.32-.28 0-.54.12-.729.32L24.7 34.437a.994.994 0 0 0 .05 1.408c.4.38 1.048.349 1.427-.05l4.133-4.421v10.898a1 1 0 0 0 .998.998c.548 0 .998-.449.998-.998V31.374v0l4.102 4.421c.2.21.459.32.728.32.24 0 .48-.09.679-.27.4-.38.429-1.008.05-1.407z"/></g></g></svg>