<svg xmlns="http://www.w3.org/2000/svg" width="38" height="38" viewBox="0 0 38 38"><g><g><path fill="#01396e" d="M15.114 26.62c-6.346 0-11.507-5.16-11.507-11.506S8.767 3.607 15.114 3.607c6.345 0 11.506 5.16 11.506 11.507 0 6.345-5.16 11.506-11.506 11.506zm21.797 8.121L26.439 24.27a14.505 14.505 0 0 0 3.25-9.156c0-8.037-6.54-14.576-14.576-14.576C7.077.538.538 7.078.538 15.114c0 8.036 6.54 14.575 14.576 14.575 3.467 0 6.65-1.221 9.156-3.25l10.471 10.472a1.53 1.53 0 0 0 2.17 0c.6-.6.6-1.57 0-2.17z"/></g></g></svg>